<mxfile host="65bd71144e">
    <diagram id="BmTj1LnInvVcmn4ehkUF" name="フロー">
        <mxGraphModel dx="1166" dy="1822" grid="1" gridSize="10" guides="1" tooltips="1" connect="1" arrows="1" fold="1" page="1" pageScale="1" pageWidth="827" pageHeight="1169" math="0" shadow="0">
            <root>
                <mxCell id="0"/>
                <mxCell id="1" parent="0"/>
                <mxCell id="27" value="csvファイル?" style="shape=note;whiteSpace=wrap;html=1;backgroundOutline=1;darkOpacity=0.05;strokeColor=default;fillColor=#FFFFFF;align=left;verticalAlign=top;" parent="1" vertex="1">
                    <mxGeometry x="500" y="70" width="200" height="120" as="geometry"/>
                </mxCell>
                <mxCell id="2" value="Favoritesモデル&lt;br&gt;・タイトル&lt;br&gt;・本文" style="shape=cylinder3;whiteSpace=wrap;html=1;boundedLbl=1;backgroundOutline=1;size=15;align=left;" parent="1" vertex="1">
                    <mxGeometry x="130" y="-80" width="100" height="100" as="geometry"/>
                </mxCell>
                <mxCell id="9" value="" style="group" parent="1" vertex="1" connectable="0">
                    <mxGeometry x="130" y="70" width="160" height="100" as="geometry"/>
                </mxCell>
                <mxCell id="3" value="本文" style="rounded=0;whiteSpace=wrap;html=1;" parent="9" vertex="1">
                    <mxGeometry width="80" height="40" as="geometry"/>
                </mxCell>
                <mxCell id="5" value="本文" style="rounded=0;whiteSpace=wrap;html=1;" parent="9" vertex="1">
                    <mxGeometry x="10" y="10" width="80" height="40" as="geometry"/>
                </mxCell>
                <mxCell id="6" value="本文" style="rounded=0;whiteSpace=wrap;html=1;" parent="9" vertex="1">
                    <mxGeometry x="20" y="20" width="80" height="40" as="geometry"/>
                </mxCell>
                <mxCell id="7" value="本文" style="rounded=0;whiteSpace=wrap;html=1;" parent="9" vertex="1">
                    <mxGeometry x="30" y="30" width="80" height="40" as="geometry"/>
                </mxCell>
                <mxCell id="8" value="本文" style="rounded=0;whiteSpace=wrap;html=1;" parent="9" vertex="1">
                    <mxGeometry x="40" y="40" width="80" height="40" as="geometry"/>
                </mxCell>
                <mxCell id="21" style="edgeStyle=none;html=1;entryX=0.5;entryY=1;entryDx=0;entryDy=0;entryPerimeter=0;endArrow=none;endFill=0;" parent="1" source="5" target="2" edge="1">
                    <mxGeometry relative="1" as="geometry"/>
                </mxCell>
                <mxCell id="25" style="edgeStyle=none;html=1;entryX=0;entryY=0.5;entryDx=0;entryDy=0;endArrow=classic;endFill=1;" parent="1" source="22" target="97" edge="1">
                    <mxGeometry relative="1" as="geometry">
                        <mxPoint x="525" y="120" as="targetPoint"/>
                    </mxGeometry>
                </mxCell>
                <mxCell id="22" value="本文を単語に分ける" style="shape=cube;whiteSpace=wrap;html=1;boundedLbl=1;backgroundOutline=1;darkOpacity=0.05;darkOpacity2=0.1;strokeColor=default;fillColor=#FFFFFF;" parent="1" vertex="1">
                    <mxGeometry x="310" y="80" width="130" height="80" as="geometry"/>
                </mxCell>
                <mxCell id="24" style="edgeStyle=none;html=1;endArrow=none;endFill=0;entryX=0.007;entryY=0.483;entryDx=0;entryDy=0;entryPerimeter=0;" parent="1" source="7" target="22" edge="1">
                    <mxGeometry relative="1" as="geometry">
                        <mxPoint x="270" y="120" as="targetPoint"/>
                    </mxGeometry>
                </mxCell>
                <mxCell id="52" style="edgeStyle=none;html=1;entryX=0;entryY=0;entryDx=0;entryDy=30;entryPerimeter=0;endArrow=classic;endFill=1;exitX=1;exitY=0;exitDx=0;exitDy=0;" parent="1" source="99" target="51" edge="1">
                    <mxGeometry relative="1" as="geometry">
                        <mxPoint x="665" y="120" as="sourcePoint"/>
                    </mxGeometry>
                </mxCell>
                <mxCell id="109" style="edgeStyle=none;html=1;entryX=0;entryY=0;entryDx=0;entryDy=45;entryPerimeter=0;endArrow=none;endFill=0;" parent="1" source="47" target="108" edge="1">
                    <mxGeometry relative="1" as="geometry"/>
                </mxCell>
                <mxCell id="47" value="ベクトルリスト" style="swimlane;fontStyle=0;childLayout=stackLayout;horizontal=1;startSize=30;horizontalStack=0;resizeParent=1;resizeParentMax=0;resizeLast=0;collapsible=1;marginBottom=0;whiteSpace=wrap;html=1;strokeColor=default;fillColor=#FFFFFF;" parent="1" vertex="1">
                    <mxGeometry x="1000" y="100" width="140" height="90" as="geometry"/>
                </mxCell>
                <mxCell id="48" value="ベクトル1(記事1)" style="text;strokeColor=none;fillColor=none;align=left;verticalAlign=middle;spacingLeft=4;spacingRight=4;overflow=hidden;points=[[0,0.5],[1,0.5]];portConstraint=eastwest;rotatable=0;whiteSpace=wrap;html=1;" parent="47" vertex="1">
                    <mxGeometry y="30" width="140" height="20" as="geometry"/>
                </mxCell>
                <mxCell id="49" value="ベクトル2(記事2)" style="text;strokeColor=none;fillColor=none;align=left;verticalAlign=middle;spacingLeft=4;spacingRight=4;overflow=hidden;points=[[0,0.5],[1,0.5]];portConstraint=eastwest;rotatable=0;whiteSpace=wrap;html=1;" parent="47" vertex="1">
                    <mxGeometry y="50" width="140" height="20" as="geometry"/>
                </mxCell>
                <mxCell id="50" value="ベクトル3(記事3) ..." style="text;strokeColor=none;fillColor=none;align=left;verticalAlign=middle;spacingLeft=4;spacingRight=4;overflow=hidden;points=[[0,0.5],[1,0.5]];portConstraint=eastwest;rotatable=0;whiteSpace=wrap;html=1;" parent="47" vertex="1">
                    <mxGeometry y="70" width="140" height="20" as="geometry"/>
                </mxCell>
                <mxCell id="53" style="edgeStyle=none;html=1;entryX=0.002;entryY=0.026;entryDx=0;entryDy=0;entryPerimeter=0;endArrow=classic;endFill=1;" parent="1" source="51" target="48" edge="1">
                    <mxGeometry relative="1" as="geometry"/>
                </mxCell>
                <mxCell id="51" value="単語をベクトルに変換" style="shape=cube;whiteSpace=wrap;html=1;boundedLbl=1;backgroundOutline=1;darkOpacity=0.05;darkOpacity2=0.1;strokeColor=default;fillColor=#FFFFFF;" parent="1" vertex="1">
                    <mxGeometry x="760" y="90" width="160" height="80" as="geometry"/>
                </mxCell>
                <mxCell id="55" value="Articlesモデル&lt;br style=&quot;border-color: var(--border-color);&quot;&gt;&lt;div style=&quot;text-align: left;&quot;&gt;&lt;span style=&quot;background-color: initial;&quot;&gt;・URL&lt;/span&gt;&lt;/div&gt;&lt;div style=&quot;text-align: left;&quot;&gt;&lt;span style=&quot;background-color: initial;&quot;&gt;・タイトル&lt;/span&gt;&lt;/div&gt;&lt;div style=&quot;text-align: left;&quot;&gt;&lt;span style=&quot;background-color: initial;&quot;&gt;・発行日&lt;/span&gt;&lt;/div&gt;&lt;div style=&quot;text-align: left;&quot;&gt;&lt;span style=&quot;background-color: initial;&quot;&gt;・サイト名&lt;/span&gt;&lt;/div&gt;&lt;div style=&quot;text-align: left;&quot;&gt;&lt;span style=&quot;background-color: initial;&quot;&gt;・お気に入り&lt;/span&gt;&lt;/div&gt;" style="shape=cylinder3;whiteSpace=wrap;html=1;boundedLbl=1;backgroundOutline=1;size=15;strokeColor=default;fillColor=#FFFFFF;" parent="1" vertex="1">
                    <mxGeometry x="125" y="250" width="110" height="140" as="geometry"/>
                </mxCell>
                <mxCell id="56" value="タイトル" style="rounded=0;whiteSpace=wrap;html=1;strokeColor=default;fillColor=#FFFFFF;" parent="1" vertex="1">
                    <mxGeometry x="130" y="440" width="80" height="40" as="geometry"/>
                </mxCell>
                <mxCell id="62" style="edgeStyle=none;html=1;entryX=0.5;entryY=1;entryDx=0;entryDy=0;entryPerimeter=0;endArrow=none;endFill=0;" parent="1" source="57" target="55" edge="1">
                    <mxGeometry relative="1" as="geometry"/>
                </mxCell>
                <mxCell id="57" value="タイトル" style="rounded=0;whiteSpace=wrap;html=1;strokeColor=default;fillColor=#FFFFFF;" parent="1" vertex="1">
                    <mxGeometry x="140" y="450" width="80" height="40" as="geometry"/>
                </mxCell>
                <mxCell id="59" value="タイトル" style="rounded=0;whiteSpace=wrap;html=1;strokeColor=default;fillColor=#FFFFFF;" parent="1" vertex="1">
                    <mxGeometry x="150" y="460" width="80" height="40" as="geometry"/>
                </mxCell>
                <mxCell id="60" value="タイトル" style="rounded=0;whiteSpace=wrap;html=1;strokeColor=default;fillColor=#FFFFFF;" parent="1" vertex="1">
                    <mxGeometry x="160" y="470" width="80" height="40" as="geometry"/>
                </mxCell>
                <mxCell id="91" style="edgeStyle=none;html=1;entryX=0;entryY=0;entryDx=0;entryDy=30;entryPerimeter=0;endArrow=none;endFill=0;" parent="1" source="61" target="63" edge="1">
                    <mxGeometry relative="1" as="geometry"/>
                </mxCell>
                <mxCell id="61" value="タイトル" style="rounded=0;whiteSpace=wrap;html=1;strokeColor=default;fillColor=#FFFFFF;" parent="1" vertex="1">
                    <mxGeometry x="170" y="480" width="80" height="40" as="geometry"/>
                </mxCell>
                <mxCell id="63" value="タイトルを単語に分ける" style="shape=cube;whiteSpace=wrap;html=1;boundedLbl=1;backgroundOutline=1;darkOpacity=0.05;darkOpacity2=0.1;strokeColor=default;fillColor=#FFFFFF;" parent="1" vertex="1">
                    <mxGeometry x="295" y="470" width="160" height="80" as="geometry"/>
                </mxCell>
                <mxCell id="96" style="edgeStyle=none;html=1;entryX=0;entryY=0.5;entryDx=0;entryDy=0;endArrow=classic;endFill=1;" parent="1" source="85" target="87" edge="1">
                    <mxGeometry relative="1" as="geometry"/>
                </mxCell>
                <mxCell id="85" value="単語をベクトルに変換" style="shape=cube;whiteSpace=wrap;html=1;boundedLbl=1;backgroundOutline=1;darkOpacity=0.05;darkOpacity2=0.1;strokeColor=default;fillColor=#FFFFFF;" parent="1" vertex="1">
                    <mxGeometry x="760" y="480" width="160" height="80" as="geometry"/>
                </mxCell>
                <mxCell id="110" style="edgeStyle=none;html=1;entryX=-0.001;entryY=0.504;entryDx=0;entryDy=0;entryPerimeter=0;endArrow=none;endFill=0;" parent="1" source="86" target="108" edge="1">
                    <mxGeometry relative="1" as="geometry"/>
                </mxCell>
                <mxCell id="86" value="ベクトルリスト" style="swimlane;fontStyle=0;childLayout=stackLayout;horizontal=1;startSize=30;horizontalStack=0;resizeParent=1;resizeParentMax=0;resizeLast=0;collapsible=1;marginBottom=0;whiteSpace=wrap;html=1;strokeColor=default;fillColor=#FFFFFF;" parent="1" vertex="1">
                    <mxGeometry x="1000" y="480" width="140" height="90" as="geometry"/>
                </mxCell>
                <mxCell id="87" value="ベクトル1(記事1)" style="text;strokeColor=none;fillColor=none;align=left;verticalAlign=middle;spacingLeft=4;spacingRight=4;overflow=hidden;points=[[0,0.5],[1,0.5]];portConstraint=eastwest;rotatable=0;whiteSpace=wrap;html=1;" parent="86" vertex="1">
                    <mxGeometry y="30" width="140" height="20" as="geometry"/>
                </mxCell>
                <mxCell id="88" value="ベクトル2(記事2)" style="text;strokeColor=none;fillColor=none;align=left;verticalAlign=middle;spacingLeft=4;spacingRight=4;overflow=hidden;points=[[0,0.5],[1,0.5]];portConstraint=eastwest;rotatable=0;whiteSpace=wrap;html=1;" parent="86" vertex="1">
                    <mxGeometry y="50" width="140" height="20" as="geometry"/>
                </mxCell>
                <mxCell id="89" value="ベクトル3(記事3) ..." style="text;strokeColor=none;fillColor=none;align=left;verticalAlign=middle;spacingLeft=4;spacingRight=4;overflow=hidden;points=[[0,0.5],[1,0.5]];portConstraint=eastwest;rotatable=0;whiteSpace=wrap;html=1;" parent="86" vertex="1">
                    <mxGeometry y="70" width="140" height="20" as="geometry"/>
                </mxCell>
                <mxCell id="90" value="" style="group" parent="1" vertex="1" connectable="0">
                    <mxGeometry x="500" y="450" width="200" height="130" as="geometry"/>
                </mxCell>
                <mxCell id="64" value="CSVファイル?" style="shape=note;whiteSpace=wrap;html=1;backgroundOutline=1;darkOpacity=0.05;strokeColor=default;fillColor=#FFFFFF;align=left;verticalAlign=top;" parent="90" vertex="1">
                    <mxGeometry y="10.833333333333332" width="200" height="119.16666666666666" as="geometry"/>
                </mxCell>
                <mxCell id="102" value="タイトル" style="rounded=0;whiteSpace=wrap;html=1;strokeColor=default;fillColor=#FFFFFF;" parent="90" vertex="1">
                    <mxGeometry x="30" y="40.00333333333333" width="80" height="43.33333333333333" as="geometry"/>
                </mxCell>
                <mxCell id="103" value="タイトル" style="rounded=0;whiteSpace=wrap;html=1;strokeColor=default;fillColor=#FFFFFF;" parent="90" vertex="1">
                    <mxGeometry x="40" y="50.836666666666666" width="80" height="43.33333333333333" as="geometry"/>
                </mxCell>
                <mxCell id="104" value="タイトル" style="rounded=0;whiteSpace=wrap;html=1;strokeColor=default;fillColor=#FFFFFF;" parent="90" vertex="1">
                    <mxGeometry x="50" y="61.67" width="80" height="43.33333333333333" as="geometry"/>
                </mxCell>
                <mxCell id="105" value="タイトル" style="rounded=0;whiteSpace=wrap;html=1;strokeColor=default;fillColor=#FFFFFF;" parent="90" vertex="1">
                    <mxGeometry x="60" y="72.50333333333333" width="80" height="43.33333333333333" as="geometry"/>
                </mxCell>
                <mxCell id="106" value="単語" style="rounded=0;whiteSpace=wrap;html=1;strokeColor=default;fillColor=#FFFFFF;" parent="90" vertex="1">
                    <mxGeometry x="70" y="83.33666666666666" width="80" height="43.33333333333333" as="geometry"/>
                </mxCell>
                <mxCell id="92" style="edgeStyle=none;html=1;entryX=0;entryY=0.5;entryDx=0;entryDy=0;endArrow=classic;endFill=1;" parent="1" source="63" target="102" edge="1">
                    <mxGeometry relative="1" as="geometry">
                        <mxPoint x="524.9999999999998" y="507.5" as="targetPoint"/>
                    </mxGeometry>
                </mxCell>
                <mxCell id="95" style="edgeStyle=none;html=1;entryX=0;entryY=0;entryDx=0;entryDy=30;entryPerimeter=0;endArrow=classic;endFill=1;exitX=1.001;exitY=0.187;exitDx=0;exitDy=0;exitPerimeter=0;" parent="1" source="103" target="85" edge="1">
                    <mxGeometry relative="1" as="geometry">
                        <mxPoint x="665" y="508.02083333333303" as="sourcePoint"/>
                    </mxGeometry>
                </mxCell>
                <mxCell id="97" value="本文" style="rounded=0;whiteSpace=wrap;html=1;" parent="1" vertex="1">
                    <mxGeometry x="530" y="100" width="80" height="40" as="geometry"/>
                </mxCell>
                <mxCell id="98" value="本文" style="rounded=0;whiteSpace=wrap;html=1;" parent="1" vertex="1">
                    <mxGeometry x="540" y="110" width="80" height="40" as="geometry"/>
                </mxCell>
                <mxCell id="99" value="本文" style="rounded=0;whiteSpace=wrap;html=1;" parent="1" vertex="1">
                    <mxGeometry x="550" y="120" width="80" height="40" as="geometry"/>
                </mxCell>
                <mxCell id="100" value="本文" style="rounded=0;whiteSpace=wrap;html=1;" parent="1" vertex="1">
                    <mxGeometry x="560" y="130" width="80" height="40" as="geometry"/>
                </mxCell>
                <mxCell id="101" value="単語" style="rounded=0;whiteSpace=wrap;html=1;" parent="1" vertex="1">
                    <mxGeometry x="570" y="140" width="80" height="40" as="geometry"/>
                </mxCell>
                <mxCell id="112" style="edgeStyle=none;html=1;entryX=0;entryY=0.5;entryDx=0;entryDy=0;endArrow=none;endFill=0;" parent="1" source="108" target="111" edge="1">
                    <mxGeometry relative="1" as="geometry"/>
                </mxCell>
                <mxCell id="108" value="モデル&lt;br&gt;&lt;font style=&quot;font-size: 5px;&quot;&gt;&lt;span style=&quot;margin: 0px; padding: 0px; border: 0px; outline: 0px; vertical-align: baseline; font-family: Monaco, MonacoRegular, &amp;quot;Courier New&amp;quot;, monospace; height: inherit; text-align: left; background-color: rgb(253, 253, 253); line-height: inherit !important; color: rgb(0, 45, 122) !important;&quot; class=&quot;crayon-v&quot;&gt;nbrs&lt;/span&gt;&lt;span style=&quot;margin: 0px; padding: 0px; border: 0px; outline: 0px; vertical-align: baseline; font-family: Monaco, MonacoRegular, &amp;quot;Courier New&amp;quot;, monospace; height: inherit; text-align: left; background-color: rgb(253, 253, 253); line-height: inherit !important; color: rgb(0, 111, 224) !important;&quot; class=&quot;crayon-h&quot;&gt; &lt;/span&gt;&lt;span style=&quot;margin: 0px; padding: 0px; border: 0px; outline: 0px; vertical-align: baseline; font-family: Monaco, MonacoRegular, &amp;quot;Courier New&amp;quot;, monospace; height: inherit; text-align: left; background-color: rgb(253, 253, 253); line-height: inherit !important; color: rgb(0, 111, 224) !important;&quot; class=&quot;crayon-o&quot;&gt;=&lt;/span&gt;&lt;span style=&quot;margin: 0px; padding: 0px; border: 0px; outline: 0px; vertical-align: baseline; font-family: Monaco, MonacoRegular, &amp;quot;Courier New&amp;quot;, monospace; height: inherit; text-align: left; background-color: rgb(253, 253, 253); line-height: inherit !important; color: rgb(0, 111, 224) !important;&quot; class=&quot;crayon-h&quot;&gt; &lt;/span&gt;&lt;span style=&quot;margin: 0px; padding: 0px; border: 0px; outline: 0px; vertical-align: baseline; font-family: Monaco, MonacoRegular, &amp;quot;Courier New&amp;quot;, monospace; height: inherit; text-align: left; background-color: rgb(253, 253, 253); line-height: inherit !important; color: rgb(0, 78, 208) !important;&quot; class=&quot;crayon-e&quot;&gt;NearestNeighbors&lt;/span&gt;&lt;span style=&quot;margin: 0px; padding: 0px; border: 0px; outline: 0px; vertical-align: baseline; font-family: Monaco, MonacoRegular, &amp;quot;Courier New&amp;quot;, monospace; height: inherit; text-align: left; background-color: rgb(253, 253, 253); line-height: inherit !important; color: rgb(51, 51, 51) !important;&quot; class=&quot;crayon-sy&quot;&gt;(&lt;/span&gt;&lt;span style=&quot;margin: 0px; padding: 0px; border: 0px; outline: 0px; vertical-align: baseline; font-family: Monaco, MonacoRegular, &amp;quot;Courier New&amp;quot;, monospace; height: inherit; text-align: left; background-color: rgb(253, 253, 253); line-height: inherit !important; color: rgb(0, 45, 122) !important;&quot; class=&quot;crayon-v&quot;&gt;n_neighbors&lt;/span&gt;&lt;span style=&quot;margin: 0px; padding: 0px; border: 0px; outline: 0px; vertical-align: baseline; font-family: Monaco, MonacoRegular, &amp;quot;Courier New&amp;quot;, monospace; height: inherit; text-align: left; background-color: rgb(253, 253, 253); line-height: inherit !important; color: rgb(0, 111, 224) !important;&quot; class=&quot;crayon-o&quot;&gt;=&lt;/span&gt;&lt;span style=&quot;margin: 0px; padding: 0px; border: 0px; outline: 0px; vertical-align: baseline; font-family: Monaco, MonacoRegular, &amp;quot;Courier New&amp;quot;, monospace; height: inherit; text-align: left; background-color: rgb(253, 253, 253); line-height: inherit !important; color: rgb(206, 0, 0) !important;&quot; class=&quot;crayon-cn&quot;&gt;1&lt;/span&gt;&lt;span style=&quot;margin: 0px; padding: 0px; border: 0px; outline: 0px; vertical-align: baseline; font-family: Monaco, MonacoRegular, &amp;quot;Courier New&amp;quot;, monospace; height: inherit; text-align: left; background-color: rgb(253, 253, 253); line-height: inherit !important; color: rgb(51, 51, 51) !important;&quot; class=&quot;crayon-sy&quot;&gt;,&lt;/span&gt;&lt;span style=&quot;margin: 0px; padding: 0px; border: 0px; outline: 0px; vertical-align: baseline; font-family: Monaco, MonacoRegular, &amp;quot;Courier New&amp;quot;, monospace; height: inherit; text-align: left; background-color: rgb(253, 253, 253); line-height: inherit !important; color: rgb(0, 45, 122) !important;&quot; class=&quot;crayon-v&quot;&gt;algorithm&lt;/span&gt;&lt;span style=&quot;margin: 0px; padding: 0px; border: 0px; outline: 0px; vertical-align: baseline; font-family: Monaco, MonacoRegular, &amp;quot;Courier New&amp;quot;, monospace; height: inherit; text-align: left; background-color: rgb(253, 253, 253); line-height: inherit !important; color: rgb(0, 111, 224) !important;&quot; class=&quot;crayon-o&quot;&gt;=&lt;/span&gt;&lt;span style=&quot;margin: 0px; padding: 0px; border: 0px; outline: 0px; vertical-align: baseline; font-family: Monaco, MonacoRegular, &amp;quot;Courier New&amp;quot;, monospace; height: inherit; text-align: left; background-color: rgb(253, 253, 253); line-height: inherit !important; color: rgb(0, 128, 0) !important;&quot; class=&quot;crayon-s&quot;&gt;'ball_tree'&lt;/span&gt;&lt;span style=&quot;margin: 0px; padding: 0px; border: 0px; outline: 0px; vertical-align: baseline; font-family: Monaco, MonacoRegular, &amp;quot;Courier New&amp;quot;, monospace; height: inherit; text-align: left; background-color: rgb(253, 253, 253); line-height: inherit !important; color: rgb(51, 51, 51) !important;&quot; class=&quot;crayon-sy&quot;&gt;)&lt;/span&gt;&lt;span style=&quot;margin: 0px; padding: 0px; border: 0px; outline: 0px; vertical-align: baseline; font-family: Monaco, MonacoRegular, &amp;quot;Courier New&amp;quot;, monospace; height: inherit; text-align: left; background-color: rgb(253, 253, 253); line-height: inherit !important; color: rgb(51, 51, 51) !important;&quot; class=&quot;crayon-sy&quot;&gt;.&lt;/span&gt;&lt;span style=&quot;margin: 0px; padding: 0px; border: 0px; outline: 0px; vertical-align: baseline; font-family: Monaco, MonacoRegular, &amp;quot;Courier New&amp;quot;, monospace; height: inherit; text-align: left; background-color: rgb(253, 253, 253); line-height: inherit !important; color: rgb(0, 78, 208) !important;&quot; class=&quot;crayon-e&quot;&gt;fit&lt;/span&gt;&lt;span style=&quot;margin: 0px; padding: 0px; border: 0px; outline: 0px; vertical-align: baseline; font-family: Monaco, MonacoRegular, &amp;quot;Courier New&amp;quot;, monospace; height: inherit; text-align: left; background-color: rgb(253, 253, 253); line-height: inherit !important; color: rgb(51, 51, 51) !important;&quot; class=&quot;crayon-sy&quot;&gt;(&lt;/span&gt;&lt;span style=&quot;margin: 0px; padding: 0px; border: 0px; outline: 0px; vertical-align: baseline; font-family: Monaco, MonacoRegular, &amp;quot;Courier New&amp;quot;, monospace; height: inherit; text-align: left; background-color: rgb(253, 253, 253); line-height: inherit !important; color: rgb(0, 45, 122) !important;&quot; class=&quot;crayon-v&quot;&gt;vectors&lt;/span&gt;&lt;span style=&quot;margin: 0px; padding: 0px; border: 0px; outline: 0px; vertical-align: baseline; font-family: Monaco, MonacoRegular, &amp;quot;Courier New&amp;quot;, monospace; height: inherit; text-align: left; background-color: rgb(253, 253, 253); line-height: inherit !important; color: rgb(51, 51, 51) !important;&quot; class=&quot;crayon-sy&quot;&gt;)&lt;/span&gt;&lt;/font&gt;" style="shape=cube;whiteSpace=wrap;html=1;boundedLbl=1;backgroundOutline=1;darkOpacity=0.05;darkOpacity2=0.1;" parent="1" vertex="1">
                    <mxGeometry x="1300" y="230" width="240" height="70" as="geometry"/>
                </mxCell>
                <mxCell id="113" value="" style="edgeStyle=none;html=1;endArrow=none;endFill=0;startArrow=classic;startFill=1;" parent="1" source="111" target="108" edge="1">
                    <mxGeometry relative="1" as="geometry"/>
                </mxCell>
                <mxCell id="111" value="結果" style="rounded=0;whiteSpace=wrap;html=1;" parent="1" vertex="1">
                    <mxGeometry x="1600" y="245" width="90" height="40" as="geometry"/>
                </mxCell>
            </root>
        </mxGraphModel>
    </diagram>
    <diagram id="Q64est99LQx6d0IfI6Tt" name="モデルの状態遷移">
        <mxGraphModel dx="2621" dy="1005" grid="1" gridSize="10" guides="1" tooltips="1" connect="1" arrows="1" fold="1" page="1" pageScale="1" pageWidth="827" pageHeight="1169" math="0" shadow="0">
            <root>
                <mxCell id="0"/>
                <mxCell id="1" parent="0"/>
                <mxCell id="9knInGy2BggexKBTYJp0-1" value="文章" style="shape=note;size=20;whiteSpace=wrap;html=1;align=center;verticalAlign=middle;" vertex="1" parent="1">
                    <mxGeometry x="-180" y="170" width="110" height="50" as="geometry"/>
                </mxCell>
                <mxCell id="9knInGy2BggexKBTYJp0-2" value="文章" style="shape=note;size=20;whiteSpace=wrap;html=1;align=center;verticalAlign=middle;" vertex="1" parent="1">
                    <mxGeometry x="-180" y="200" width="110" height="50" as="geometry"/>
                </mxCell>
                <mxCell id="9knInGy2BggexKBTYJp0-3" value="文章" style="shape=note;size=20;whiteSpace=wrap;html=1;align=center;verticalAlign=middle;" vertex="1" parent="1">
                    <mxGeometry x="-180" y="230" width="110" height="50" as="geometry"/>
                </mxCell>
                <mxCell id="9knInGy2BggexKBTYJp0-4" value="" style="shape=flexArrow;endArrow=classic;html=1;" edge="1" parent="1">
                    <mxGeometry width="50" height="50" relative="1" as="geometry">
                        <mxPoint x="-50" y="230" as="sourcePoint"/>
                        <mxPoint x="10" y="230" as="targetPoint"/>
                    </mxGeometry>
                </mxCell>
                <mxCell id="9knInGy2BggexKBTYJp0-5" value="ひとつの文章" style="shape=note;size=20;whiteSpace=wrap;html=1;" vertex="1" parent="1">
                    <mxGeometry x="30" y="170" width="100" height="110" as="geometry"/>
                </mxCell>
                <mxCell id="9knInGy2BggexKBTYJp0-6" value="" style="shape=flexArrow;endArrow=classic;html=1;" edge="1" parent="1">
                    <mxGeometry width="50" height="50" relative="1" as="geometry">
                        <mxPoint x="150" y="230" as="sourcePoint"/>
                        <mxPoint x="210" y="230" as="targetPoint"/>
                    </mxGeometry>
                </mxCell>
                <mxCell id="9knInGy2BggexKBTYJp0-7" value="単語リスト" style="swimlane;fontStyle=0;childLayout=stackLayout;horizontal=1;startSize=26;horizontalStack=0;resizeParent=1;resizeParentMax=0;resizeLast=0;collapsible=1;marginBottom=0;align=center;fontSize=14;" vertex="1" parent="1">
                    <mxGeometry x="240" y="170" width="160" height="120" as="geometry"/>
                </mxCell>
                <mxCell id="9knInGy2BggexKBTYJp0-8" value="単語" style="text;strokeColor=none;fillColor=none;spacingLeft=4;spacingRight=4;overflow=hidden;rotatable=0;points=[[0,0.5],[1,0.5]];portConstraint=eastwest;fontSize=12;" vertex="1" parent="9knInGy2BggexKBTYJp0-7">
                    <mxGeometry y="26" width="160" height="30" as="geometry"/>
                </mxCell>
                <mxCell id="9knInGy2BggexKBTYJp0-9" value="単語" style="text;strokeColor=none;fillColor=none;spacingLeft=4;spacingRight=4;overflow=hidden;rotatable=0;points=[[0,0.5],[1,0.5]];portConstraint=eastwest;fontSize=12;" vertex="1" parent="9knInGy2BggexKBTYJp0-7">
                    <mxGeometry y="56" width="160" height="30" as="geometry"/>
                </mxCell>
                <mxCell id="9knInGy2BggexKBTYJp0-10" value="単語" style="text;strokeColor=none;fillColor=none;spacingLeft=4;spacingRight=4;overflow=hidden;rotatable=0;points=[[0,0.5],[1,0.5]];portConstraint=eastwest;fontSize=12;" vertex="1" parent="9knInGy2BggexKBTYJp0-7">
                    <mxGeometry y="86" width="160" height="34" as="geometry"/>
                </mxCell>
                <mxCell id="9knInGy2BggexKBTYJp0-11" value="テキストファイル" style="shape=note;size=20;whiteSpace=wrap;html=1;verticalAlign=top;align=left;" vertex="1" parent="1">
                    <mxGeometry x="510" y="120" width="180" height="170" as="geometry"/>
                </mxCell>
                <mxCell id="9knInGy2BggexKBTYJp0-12" value="" style="shape=flexArrow;endArrow=classic;html=1;" edge="1" parent="1">
                    <mxGeometry width="50" height="50" relative="1" as="geometry">
                        <mxPoint x="420" y="230" as="sourcePoint"/>
                        <mxPoint x="480" y="230" as="targetPoint"/>
                    </mxGeometry>
                </mxCell>
                <mxCell id="9knInGy2BggexKBTYJp0-13" value="単語リスト" style="swimlane;fontStyle=0;childLayout=stackLayout;horizontal=1;startSize=26;horizontalStack=0;resizeParent=1;resizeParentMax=0;resizeLast=0;collapsible=1;marginBottom=0;align=center;fontSize=14;" vertex="1" parent="1">
                    <mxGeometry x="520" y="150" width="160" height="120" as="geometry"/>
                </mxCell>
                <mxCell id="9knInGy2BggexKBTYJp0-14" value="単語" style="text;strokeColor=none;fillColor=none;spacingLeft=4;spacingRight=4;overflow=hidden;rotatable=0;points=[[0,0.5],[1,0.5]];portConstraint=eastwest;fontSize=12;" vertex="1" parent="9knInGy2BggexKBTYJp0-13">
                    <mxGeometry y="26" width="160" height="30" as="geometry"/>
                </mxCell>
                <mxCell id="9knInGy2BggexKBTYJp0-15" value="単語" style="text;strokeColor=none;fillColor=none;spacingLeft=4;spacingRight=4;overflow=hidden;rotatable=0;points=[[0,0.5],[1,0.5]];portConstraint=eastwest;fontSize=12;" vertex="1" parent="9knInGy2BggexKBTYJp0-13">
                    <mxGeometry y="56" width="160" height="30" as="geometry"/>
                </mxCell>
                <mxCell id="9knInGy2BggexKBTYJp0-16" value="単語" style="text;strokeColor=none;fillColor=none;spacingLeft=4;spacingRight=4;overflow=hidden;rotatable=0;points=[[0,0.5],[1,0.5]];portConstraint=eastwest;fontSize=12;" vertex="1" parent="9knInGy2BggexKBTYJp0-13">
                    <mxGeometry y="86" width="160" height="34" as="geometry"/>
                </mxCell>
                <mxCell id="9knInGy2BggexKBTYJp0-17" value="" style="shape=flexArrow;endArrow=classic;html=1;" edge="1" parent="1">
                    <mxGeometry width="50" height="50" relative="1" as="geometry">
                        <mxPoint x="710" y="230" as="sourcePoint"/>
                        <mxPoint x="770" y="230" as="targetPoint"/>
                    </mxGeometry>
                </mxCell>
                <mxCell id="9knInGy2BggexKBTYJp0-18" value="" style="shape=flexArrow;endArrow=classic;html=1;fillColor=#FF9933;" edge="1" parent="1">
                    <mxGeometry width="50" height="50" relative="1" as="geometry">
                        <mxPoint x="800" y="255" as="sourcePoint"/>
                        <mxPoint x="850" y="205" as="targetPoint"/>
                    </mxGeometry>
                </mxCell>
                <mxCell id="9knInGy2BggexKBTYJp0-19" value="ベクトルモデル作成" style="text;html=1;strokeColor=none;fillColor=none;align=center;verticalAlign=middle;whiteSpace=wrap;rounded=0;" vertex="1" parent="1">
                    <mxGeometry x="780" y="170" width="110" height="30" as="geometry"/>
                </mxCell>
                <mxCell id="9knInGy2BggexKBTYJp0-20" value="" style="shape=flexArrow;endArrow=classic;html=1;" edge="1" parent="1">
                    <mxGeometry width="50" height="50" relative="1" as="geometry">
                        <mxPoint x="900" y="230" as="sourcePoint"/>
                        <mxPoint x="960" y="230" as="targetPoint"/>
                    </mxGeometry>
                </mxCell>
                <mxCell id="9knInGy2BggexKBTYJp0-21" value="モデルファイル" style="shape=note;size=20;whiteSpace=wrap;html=1;verticalAlign=top;align=left;" vertex="1" parent="1">
                    <mxGeometry x="980" y="120" width="180" height="170" as="geometry"/>
                </mxCell>
                <mxCell id="9knInGy2BggexKBTYJp0-22" value="" style="shape=flexArrow;endArrow=classic;html=1;fillColor=#FF9933;" edge="1" parent="1">
                    <mxGeometry width="50" height="50" relative="1" as="geometry">
                        <mxPoint x="1040" y="235" as="sourcePoint"/>
                        <mxPoint x="1090" y="185" as="targetPoint"/>
                    </mxGeometry>
                </mxCell>
                <mxCell id="9knInGy2BggexKBTYJp0-23" value="" style="rounded=0;whiteSpace=wrap;html=1;fillColor=none;" vertex="1" parent="1">
                    <mxGeometry x="-200" y="90" width="1380" height="220" as="geometry"/>
                </mxCell>
            </root>
        </mxGraphModel>
    </diagram>
</mxfile>